<svg width="259" height="259" viewBox="0 0 259 259" fill="none" xmlns="http://www.w3.org/2000/svg">
<g clip-path="url(#clip0_307_250)">
<path d="M0 8.6727V20.1064C4.78109 20.1064 8.67147 23.9967 8.67147 28.7761C8.67147 33.5586 4.78109 37.4488 0 37.4488V48.8825C4.78109 48.8825 8.67147 52.7728 8.67147 57.5523C8.67147 62.3347 4.78109 66.225 0 66.225V77.6587C4.78109 77.6587 8.67147 81.5489 8.67147 86.3343C8.67147 91.1197 4.78109 95.01 0 95.01V106.444C4.78109 106.444 8.67147 110.331 8.67147 115.113C8.67147 119.896 4.78109 123.786 0 123.786V135.22C4.78109 135.22 8.67147 139.107 8.67147 143.89C8.67147 148.672 4.78109 152.562 0 152.562V163.996C4.78109 163.996 8.67147 167.883 8.67147 172.666C8.67147 177.448 4.78109 181.338 0 181.338V192.772C4.78109 192.772 8.67147 196.659 8.67147 201.442C8.67147 206.224 4.78109 210.115 0 210.115V221.548C4.78109 221.548 8.67147 225.436 8.67147 230.218C8.67147 235 4.78109 238.891 0 238.891V250.33C2.28235 250.33 4.51728 251.254 6.13272 252.869C7.74519 254.481 8.67147 256.716 8.67147 259H20.1055C20.1055 254.218 23.9959 250.33 28.777 250.33C33.558 250.33 37.4484 254.218 37.4484 259H48.8824C48.8824 254.218 52.7728 250.33 57.5539 250.33C62.335 250.33 66.2254 254.218 66.2254 259H77.6594C77.6594 254.218 81.5498 250.33 86.3309 250.33C91.112 250.33 95.0023 254.218 95.0023 259H106.436C106.436 254.218 110.327 250.33 115.108 250.33C119.889 250.33 123.779 254.218 123.779 259H135.213C135.213 254.218 139.104 250.33 143.885 250.33C148.666 250.33 152.556 254.218 152.556 259H163.99C163.99 254.218 167.881 250.33 172.662 250.33C177.443 250.33 181.333 254.218 181.333 259H192.767C192.767 254.218 196.658 250.33 201.439 250.33C206.22 250.33 210.11 254.218 210.11 259H221.544C221.544 254.218 225.435 250.33 230.216 250.33C234.997 250.33 238.887 254.218 238.887 259H250.327C250.327 256.716 251.253 254.481 252.869 252.869C254.481 251.254 256.716 250.33 259 250.33V238.897C254.217 238.897 250.327 235.006 250.327 230.224C250.327 225.441 254.217 221.554 259 221.554V210.12C254.217 210.12 250.327 206.23 250.327 201.448C250.327 196.665 254.217 192.778 259 192.778V181.344C254.217 181.344 250.327 177.454 250.327 172.672C250.327 167.889 254.217 164.002 259 164.002V152.568C254.217 152.568 250.327 148.678 250.327 143.895C250.327 139.113 254.217 135.226 259 135.226V123.792C254.217 123.792 250.327 119.902 250.327 115.119C250.327 110.337 254.217 106.45 259 106.45V95.0159C254.217 95.0159 250.327 91.1257 250.327 86.3402C250.327 81.5548 254.217 77.6646 259 77.6646V66.2309C254.217 66.2309 250.327 62.3406 250.327 57.5582C250.327 52.7787 254.217 48.8884 259 48.8884V37.4548C254.217 37.4548 250.327 33.5645 250.327 28.7821C250.327 24.0026 254.217 20.1123 259 20.1123V8.6727C256.716 8.6727 254.481 7.74645 252.869 6.13402C251.253 4.51864 250.327 2.28377 250.327 0H238.893C238.893 4.78244 235.003 8.6727 230.222 8.6727C225.44 8.6727 221.55 4.78244 221.55 0H210.116C210.116 4.78244 206.226 8.6727 201.445 8.6727C196.664 8.6727 192.773 4.78244 192.773 0H181.339C181.339 4.78244 177.449 8.6727 172.668 8.6727C167.887 8.6727 163.996 4.78244 163.996 0H152.562C152.562 4.78244 148.672 8.6727 143.891 8.6727C139.11 8.6727 135.219 4.78244 135.219 0H123.785C123.785 4.78244 119.895 8.6727 115.114 8.6727C110.333 8.6727 106.442 4.78244 106.442 0H95.0083C95.0083 4.78244 91.1179 8.6727 86.3368 8.6727C81.5557 8.6727 77.6653 4.78244 77.6653 0H66.2313C66.2313 4.78244 62.3409 8.6727 57.5598 8.6727C52.7787 8.6727 48.8884 4.78244 48.8884 0H37.4543C37.4543 4.78244 33.564 8.6727 28.7829 8.6727C24.0018 8.6727 20.1114 4.78244 20.1114 0H8.67147C8.67147 2.28377 7.74519 4.51864 6.13272 6.13402C4.51728 7.74645 2.28235 8.6727 0 8.6727Z" fill="url(#paint0_linear_307_250)"/>
<path d="M220.635 103.634H91.3933L98.1381 72.0774H176.909L184.136 38.1128H70.9159L35.2637 206.252H69.4709L85.1257 132.78H167.173L95.8795 203.361L108.406 225.521C114.186 221.668 123.58 221.185 130.085 221.185C141.65 221.185 152.971 225.041 164.771 225.041C175.592 225.041 186.668 224.318 204.738 215.645L211.051 186.017C198.763 191.074 180.583 195.893 164.771 195.893C158.271 195.893 152.248 194.448 145.985 193.485L215.094 126.279L220.635 103.634Z" fill="white"/>
<path d="M198.998 160.573C201.094 158.003 203.127 156.538 205.098 156.179C207.067 155.804 208.987 156.379 210.858 157.904C211.703 158.593 212.392 159.389 212.925 160.292C213.457 161.179 213.762 162.169 213.84 163.26C213.909 164.344 213.7 165.527 213.214 166.81C212.727 168.075 211.891 169.435 210.706 170.888L208.729 173.313L216.563 179.7L214.675 182.016L194.756 165.778L198.998 160.573ZM200.796 162.402L198.619 165.072L206.74 171.692L208.506 169.525C209.542 168.254 210.269 167.084 210.685 166.018C211.108 164.942 211.19 163.942 210.929 163.019C210.66 162.089 210.016 161.209 208.999 160.38C207.673 159.299 206.343 158.918 205.009 159.237C203.667 159.548 202.262 160.603 200.796 162.402ZM218.406 146.391C218.651 146.091 218.924 145.792 219.227 145.495C219.521 145.19 219.799 144.933 220.061 144.723L221.926 146.719C221.662 146.913 221.39 147.145 221.109 147.415C220.829 147.685 220.581 147.952 220.366 148.215C219.878 148.814 219.538 149.482 219.346 150.218C219.153 150.937 219.12 151.682 219.249 152.452C219.368 153.214 219.653 153.968 220.104 154.714C220.545 155.452 221.152 156.135 221.924 156.765L229.935 163.295L228.081 165.571L213.148 153.398L214.681 151.518L217.633 153.516L217.71 153.421C217.408 152.66 217.208 151.877 217.109 151.07C217.001 150.257 217.044 149.453 217.238 148.658C217.439 147.855 217.829 147.099 218.406 146.391ZM240.39 135.169C241.616 136.168 242.581 137.22 243.285 138.322C243.988 139.425 244.427 140.547 244.602 141.687C244.776 142.827 244.693 143.968 244.351 145.111C244.007 146.237 243.399 147.336 242.525 148.407C241.711 149.407 240.79 150.183 239.764 150.738C238.736 151.275 237.642 151.578 236.483 151.646C235.331 151.705 234.137 151.51 232.9 151.062C231.671 150.604 230.443 149.875 229.217 148.876C227.582 147.543 226.418 146.133 225.725 144.646C225.023 143.151 224.791 141.647 225.028 140.132C225.264 138.6 225.963 137.121 227.125 135.695C228.236 134.333 229.51 133.391 230.948 132.869C232.393 132.339 233.922 132.263 235.535 132.64C237.146 133 238.764 133.844 240.39 135.169ZM231.127 146.532C232.326 147.509 233.496 148.198 234.636 148.599C235.776 148.999 236.857 149.064 237.879 148.793C238.901 148.522 239.838 147.865 240.689 146.82C241.533 145.785 241.985 144.739 242.044 143.684C242.111 142.619 241.833 141.569 241.211 140.533C240.589 139.497 239.679 138.49 238.48 137.512C237.29 136.542 236.134 135.865 235.012 135.479C233.881 135.086 232.809 135.029 231.796 135.307C230.783 135.585 229.847 136.251 228.988 137.304C227.722 138.858 227.306 140.416 227.74 141.979C228.181 143.534 229.31 145.051 231.127 146.532Z" fill="#FFF4EF"/>
</g>
<defs>
<linearGradient id="paint0_linear_307_250" x1="129.494" y1="31.4509" x2="129.494" y2="231.531" gradientUnits="userSpaceOnUse">
<stop stop-color="#BF0000"/>
<stop offset="1" stop-color="#8F0000"/>
</linearGradient>
<clipPath id="clip0_307_250">
<rect width="259" height="259" fill="white"/>
</clipPath>
</defs>
</svg>
