<?xml version="1.0" encoding="UTF-8" standalone="no"?>
<svg
   width="1647"
   height="369"
   viewBox="0 0 1647 368.99999"
   version="1.1"
   id="svg2"
   xmlns="http://www.w3.org/2000/svg"
   xmlns:svg="http://www.w3.org/2000/svg">
  <defs
     id="defs2" />
  <g
     fill="#c90526"
     id="g2"
     transform="matrix(15,0,0,15,-9,0)">
    <path
       d="m 35.7,12.4 c -0.9,-0.2 -1.6,-0.3 -1.6,-0.9 0,-0.3 0.3,-0.7 1.4,-0.7 0.7,0 1.6,0.3 2.5,1 l 1.8,-1.7 C 39.1,9.6 37.7,8.6 35.4,8.6 c -2.8,0 -4.2,1.7 -4.2,3.3 0,0.7 0.3,1.4 0.7,1.9 0.4,0.4 1,0.7 1.6,0.9 0.4,0.1 0.9,0.2 1.3,0.3 0.6,0.1 1.2,0.2 1.7,0.4 0.2,0.1 0.4,0.2 0.4,0.6 0,0.7 -1.1,1 -1.8,1 C 34,17 33,16.4 32.2,15.6 l -1.8,1.7 c 0.6,0.6 2,1.9 4.8,1.9 2.3,0 4.7,-1.1 4.7,-3.5 0.1,-2.4 -2.2,-3 -4.2,-3.3 z M 44.4,6.1 H 41.5 V 9.2 H 40.1 V 11 h 1.4 v 4.8 c 0,0.9 0,1.6 0.4,2.2 0.6,0.9 1.7,1 2.7,1 0.5,0 0.9,-0.1 1.5,-0.2 v -2.3 h -1 c -0.8,0 -0.8,-0.5 -0.8,-1.1 V 11 h 1.9 V 9.2 H 44.3 V 6.1 Z M 55.2,10 c -1.3,-1.4 -3,-1.4 -3.6,-1.4 -3.9,0 -5.1,3.1 -5.1,5.5 0,3.2 2.1,5.1 5,5.1 1.6,0 2.9,-0.6 3.7,-1.4 0.5,-0.5 0.9,-1 1.2,-1.5 l -2.2,-1.1 c -0.4,0.7 -0.9,1.7 -2.5,1.7 -1.6,0 -2.3,-1.2 -2.3,-2.5 h 7.1 c 0.1,-1 0,-3 -1.3,-4.4 z m -5.6,2.7 c 0.1,-0.4 0.2,-0.9 0.6,-1.3 0.3,-0.3 0.8,-0.6 1.5,-0.6 0.5,0 1.1,0.2 1.4,0.5 0.4,0.4 0.5,1 0.5,1.4 z m 8.2,-7.3 h 2.9 v 2.3 h -2.9 z m 0,3.5 h 2.9 v 9.9 H 57.8 Z M 70,9.1 C 69.5,8.8 68.8,8.7 68.2,8.7 c -0.7,0 -1.3,0.2 -1.8,0.4 -0.5,0.2 -0.7,0.5 -1,0.8 V 9 h -2.9 v 9.9 h 2.9 v -5.3 c 0,-1.2 0,-2.5 1.5,-2.5 0.6,0 1.1,0.2 1.3,0.8 0.1,0.3 0.1,0.6 0.1,1.5 V 19 h 2.9 V 12.2 C 71.3,10.5 71,9.6 70,9.1 Z m 8.9,-0.5 c -1.7,0 -2.4,0.8 -2.8,1.2 V 5.4 H 73.3 V 18.8 H 76 l -0.1,-1 c 0.4,0.4 1.2,1.3 2.9,1.3 2,0 3.2,-1.2 3.7,-2.4 0.4,-0.9 0.6,-2 0.6,-3 0,-4 -2.7,-5.1 -4.2,-5.1 z m 0.7,7.6 c -0.2,0.3 -0.7,0.7 -1.5,0.7 -0.7,0 -1.3,-0.3 -1.7,-0.9 -0.3,-0.6 -0.5,-1.5 -0.5,-2.2 0,-0.6 0,-2.9 2.1,-3 1.6,-0.1 2.1,1.4 2.1,3 0.1,0.4 0.1,1.7 -0.5,2.4 z M 92.4,10 c -1.3,-1.4 -3,-1.4 -3.6,-1.4 -3.9,0 -5.1,3.1 -5.1,5.5 0,3.2 2.1,5.1 5,5.1 1.6,0 2.9,-0.6 3.7,-1.4 0.5,-0.5 0.9,-1 1.2,-1.5 l -2.2,-1.1 c -0.4,0.7 -0.9,1.7 -2.5,1.7 -1.6,0 -2.3,-1.2 -2.3,-2.5 h 7.1 c 0,-1 0,-3 -1.3,-4.4 z m -5.7,2.7 c 0.1,-0.4 0.2,-0.9 0.6,-1.3 0.3,-0.3 0.8,-0.6 1.5,-0.6 0.5,0 1.1,0.2 1.4,0.5 0.4,0.4 0.5,1 0.5,1.4 z m 11,-3.8 h -2.8 v 9.9 h 2.9 v -5.6 c 0,-1.2 0.4,-1.5 1.8,-1.7 l 1,-0.2 V 8.7 c -1.5,0.2 -2.2,0.6 -2.9,1.1 z m 9.9,0 v 0.9 c -0.4,-0.4 -1.1,-1.1 -2.6,-1.1 -3.3,0 -4.2,2.9 -4.2,4.8 0,1.7 0.5,3.2 1.8,4.1 0.6,0.4 1.4,0.6 2.3,0.6 1.3,0 2,-0.5 2.6,-0.8 v 1.1 c 0,0.8 0,1.9 -1.8,1.9 -0.5,0 -0.7,-0.1 -0.9,-0.2 -0.8,-0.4 -0.8,-1 -0.9,-1.4 h -3 c 0,0.5 0,1.5 0.8,2.3 0.5,0.5 1.8,1.2 3.8,1.2 0.9,0 2.4,-0.2 3.4,-0.8 1.4,-0.8 1.5,-2.1 1.5,-3.2 V 8.8 h -2.8 z m -2,7.3 c -1.8,0 -1.9,-1.7 -1.9,-2.6 0,-1.4 0.3,-2.6 1.7,-2.6 0.8,0 1.4,0.4 1.6,0.7 0.3,0.5 0.4,1.5 0.4,1.9 0,1.4 -0.4,2.6 -1.8,2.6 z M 12.9,0 C 6.1,0 0.6,5.5 0.6,12.3 c 0,6.8 5.5,12.3 12.3,12.3 6.8,0 12.3,-5.5 12.3,-12.3 C 25.2,5.5 19.7,0 12.9,0 Z m 0,21.8 c -5.2,0 -9.5,-4.3 -9.5,-9.5 0,-5.2 4.3,-9.5 9.5,-9.5 5.2,0 9.5,4.3 9.5,9.5 0,5.2 -4.2,9.5 -9.5,9.5 z"
       id="path1" />
    <path
       d="M 14.5,9.4 V 15 c 0,0.8 0.6,1.1 1.2,0.7 l 4.9,-2.8 c 0.7,-0.4 0.7,-1 0,-1.4 L 15.7,8.7 C 15,8.3 14.5,8.6 14.5,9.4 Z"
       id="path2" />
  </g>
</svg>
